<svg xmlns="http://www.w3.org/2000/svg" width="97.601" height="97.601" viewBox="0 0 97.601 97.601">
  <g id="pizza" transform="translate(-216.823 -198.275)">
    <g id="pizza-2" data-name="pizza" transform="translate(216.823 198.275)">
      <circle id="Ellipse_27" data-name="Ellipse 27" cx="48.801" cy="48.801" r="48.801" transform="translate(0 0)" fill="#cbb09c"/>
      <circle id="Ellipse_2" data-name="Ellipse 2" cx="44.849" cy="44.849" r="44.849" transform="translate(3.952 3.952)" fill="#faf8d2"/>
      <g id="mushrooms" transform="translate(33.028 17.172)">
        <path id="Path_11" data-name="Path 11" d="M262.842,6.754a8.309,8.309,0,0,0-2.361-4.295h0A8.284,8.284,0,0,0,256.112.087a4.511,4.511,0,0,0-4.07,1.1,2.546,2.546,0,0,0,0,3.6h0a2.542,2.542,0,0,0,1.7.743,10.254,10.254,0,0,0-1.512.974,2.99,2.99,0,0,0-.3,4.491l0,0a3,3,0,0,0,4.5-.3,10.342,10.342,0,0,0,.972-1.5,2.537,2.537,0,0,0,.739,1.685l0,0a2.509,2.509,0,0,0,1.83.736,2.631,2.631,0,0,0,1.87-.832,4.564,4.564,0,0,0,1-4.039Zm0,0" transform="translate(-251.056 0)" fill="#92796e"/>
        <path id="Path_14" data-name="Path 14" d="M281.234,58.359a8.309,8.309,0,0,0-2.361-4.295h0L270.324,62.6l0,0a3,3,0,0,0,4.5-.3,10.368,10.368,0,0,0,.972-1.5,2.537,2.537,0,0,0,.739,1.685l0,0a2.509,2.509,0,0,0,1.83.736,2.632,2.632,0,0,0,1.87-.832,4.564,4.564,0,0,0,1-4.039Zm0,0" transform="translate(-269.448 -51.605)" fill="#7a6059"/>
      </g>
      <g id="mushrooms-2" data-name="mushrooms" transform="translate(69.388 21.124)">
        <path id="Path_11-2" data-name="Path 11" d="M262.842,6.754a8.309,8.309,0,0,0-2.361-4.295h0A8.284,8.284,0,0,0,256.112.087a4.511,4.511,0,0,0-4.07,1.1,2.546,2.546,0,0,0,0,3.6h0a2.542,2.542,0,0,0,1.7.743,10.254,10.254,0,0,0-1.512.974,2.99,2.99,0,0,0-.3,4.491l0,0a3,3,0,0,0,4.5-.3,10.342,10.342,0,0,0,.972-1.5,2.537,2.537,0,0,0,.739,1.685l0,0a2.509,2.509,0,0,0,1.83.736,2.631,2.631,0,0,0,1.87-.832,4.564,4.564,0,0,0,1-4.039Zm0,0" transform="translate(-251.056 0)" fill="#92796e"/>
        <path id="Path_14-2" data-name="Path 14" d="M281.234,58.359a8.309,8.309,0,0,0-2.361-4.295h0L270.324,62.6l0,0a3,3,0,0,0,4.5-.3,10.368,10.368,0,0,0,.972-1.5,2.537,2.537,0,0,0,.739,1.685l0,0a2.509,2.509,0,0,0,1.83.736,2.632,2.632,0,0,0,1.87-.832,4.564,4.564,0,0,0,1-4.039Zm0,0" transform="translate(-269.448 -51.605)" fill="#7a6059"/>
      </g>
      <g id="mushrooms-3" data-name="mushrooms" transform="translate(10.896 47.209)">
        <path id="Path_11-3" data-name="Path 11" d="M262.842,6.754a8.309,8.309,0,0,0-2.361-4.295h0A8.284,8.284,0,0,0,256.112.087a4.511,4.511,0,0,0-4.07,1.1,2.546,2.546,0,0,0,0,3.6h0a2.542,2.542,0,0,0,1.7.743,10.254,10.254,0,0,0-1.512.974,2.99,2.99,0,0,0-.3,4.491l0,0a3,3,0,0,0,4.5-.3,10.342,10.342,0,0,0,.972-1.5,2.537,2.537,0,0,0,.739,1.685l0,0a2.509,2.509,0,0,0,1.83.736,2.631,2.631,0,0,0,1.87-.832,4.564,4.564,0,0,0,1-4.039Zm0,0" transform="translate(-251.056 0)" fill="#92796e"/>
        <path id="Path_14-3" data-name="Path 14" d="M281.234,58.359a8.309,8.309,0,0,0-2.361-4.295h0L270.324,62.6l0,0a3,3,0,0,0,4.5-.3,10.368,10.368,0,0,0,.972-1.5,2.537,2.537,0,0,0,.739,1.685l0,0a2.509,2.509,0,0,0,1.83.736,2.632,2.632,0,0,0,1.87-.832,4.564,4.564,0,0,0,1-4.039Zm0,0" transform="translate(-269.448 -51.605)" fill="#7a6059"/>
      </g>
      <g id="mushrooms-4" data-name="mushrooms" transform="translate(32.238 72.502)">
        <path id="Path_11-4" data-name="Path 11" d="M262.842,6.754a8.309,8.309,0,0,0-2.361-4.295h0A8.284,8.284,0,0,0,256.112.087a4.511,4.511,0,0,0-4.07,1.1,2.546,2.546,0,0,0,0,3.6h0a2.542,2.542,0,0,0,1.7.743,10.254,10.254,0,0,0-1.512.974,2.99,2.99,0,0,0-.3,4.491l0,0a3,3,0,0,0,4.5-.3,10.342,10.342,0,0,0,.972-1.5,2.537,2.537,0,0,0,.739,1.685l0,0a2.509,2.509,0,0,0,1.83.736,2.631,2.631,0,0,0,1.87-.832,4.564,4.564,0,0,0,1-4.039Zm0,0" transform="translate(-251.056 0)" fill="#92796e"/>
        <path id="Path_14-4" data-name="Path 14" d="M281.234,58.359a8.309,8.309,0,0,0-2.361-4.295h0L270.324,62.6l0,0a3,3,0,0,0,4.5-.3,10.368,10.368,0,0,0,.972-1.5,2.537,2.537,0,0,0,.739,1.685l0,0a2.509,2.509,0,0,0,1.83.736,2.632,2.632,0,0,0,1.87-.832,4.564,4.564,0,0,0,1-4.039Zm0,0" transform="translate(-269.448 -51.605)" fill="#7a6059"/>
      </g>
      <g id="mushrooms-5" data-name="mushrooms" transform="translate(72.55 58.275)">
        <path id="Path_11-5" data-name="Path 11" d="M262.842,6.754a8.309,8.309,0,0,0-2.361-4.295h0A8.284,8.284,0,0,0,256.112.087a4.511,4.511,0,0,0-4.07,1.1,2.546,2.546,0,0,0,0,3.6h0a2.542,2.542,0,0,0,1.7.743,10.254,10.254,0,0,0-1.512.974,2.99,2.99,0,0,0-.3,4.491l0,0a3,3,0,0,0,4.5-.3,10.342,10.342,0,0,0,.972-1.5,2.537,2.537,0,0,0,.739,1.685l0,0a2.509,2.509,0,0,0,1.83.736,2.631,2.631,0,0,0,1.87-.832,4.564,4.564,0,0,0,1-4.039Zm0,0" transform="translate(-251.056 0)" fill="#92796e"/>
        <path id="Path_14-5" data-name="Path 14" d="M281.234,58.359a8.309,8.309,0,0,0-2.361-4.295h0L270.324,62.6l0,0a3,3,0,0,0,4.5-.3,10.368,10.368,0,0,0,.972-1.5,2.537,2.537,0,0,0,.739,1.685l0,0a2.509,2.509,0,0,0,1.83.736,2.632,2.632,0,0,0,1.87-.832,4.564,4.564,0,0,0,1-4.039Zm0,0" transform="translate(-269.448 -51.605)" fill="#7a6059"/>
      </g>
      <g id="mushrooms-6" data-name="mushrooms" transform="translate(40.933 36.933)">
        <path id="Path_11-6" data-name="Path 11" d="M262.842,6.754a8.309,8.309,0,0,0-2.361-4.295h0A8.284,8.284,0,0,0,256.112.087a4.511,4.511,0,0,0-4.07,1.1,2.546,2.546,0,0,0,0,3.6h0a2.542,2.542,0,0,0,1.7.743,10.254,10.254,0,0,0-1.512.974,2.99,2.99,0,0,0-.3,4.491l0,0a3,3,0,0,0,4.5-.3,10.342,10.342,0,0,0,.972-1.5,2.537,2.537,0,0,0,.739,1.685l0,0a2.509,2.509,0,0,0,1.83.736,2.631,2.631,0,0,0,1.87-.832,4.564,4.564,0,0,0,1-4.039Zm0,0" transform="translate(-251.056 0)" fill="#92796e"/>
        <path id="Path_14-6" data-name="Path 14" d="M281.234,58.359a8.309,8.309,0,0,0-2.361-4.295h0L270.324,62.6l0,0a3,3,0,0,0,4.5-.3,10.368,10.368,0,0,0,.972-1.5,2.537,2.537,0,0,0,.739,1.685l0,0a2.509,2.509,0,0,0,1.83.736,2.632,2.632,0,0,0,1.87-.832,4.564,4.564,0,0,0,1-4.039Zm0,0" transform="translate(-269.448 -51.605)" fill="#7a6059"/>
      </g>
    </g>
    <circle id="Ellipse_28" data-name="Ellipse 28" cx="7.332" cy="7.332" r="7.332" transform="translate(273.649 236.279)" fill="#f3c4df"/>
    <g id="Ellipse_29" data-name="Ellipse 29" transform="translate(277.839 238.374)" fill="#f9e5f1" stroke="#f9e5f1" stroke-width="1">
      <circle cx="1.571" cy="1.571" r="1.571" stroke="none"/>
      <circle cx="1.571" cy="1.571" r="1.071" fill="none"/>
    </g>
    <g id="Path_15" data-name="Path 15" transform="translate(276.792 244.658)" fill="#f9e5f1">
      <path d="M 1.571085810661316 2.642175912857056 C 0.9804857969284058 2.642175912857056 0.4999957978725433 2.161685705184937 0.4999957978725433 1.571085810661316 C 0.4999957978725433 0.9804857969284058 0.9804857969284058 0.4999957978725433 1.571085810661316 0.4999957978725433 C 2.161685705184937 0.4999957978725433 2.642175912857056 0.9804857969284058 2.642175912857056 1.571085810661316 C 2.642175912857056 2.161685705184937 2.161685705184937 2.642175912857056 1.571085810661316 2.642175912857056 Z" stroke="none"/>
      <path d="M 1.571085810661316 0.9999957084655762 C 1.25618577003479 0.9999957084655762 0.9999957084655762 1.25618577003479 0.9999957084655762 1.571085810661316 C 0.9999957084655762 1.885985851287842 1.25618577003479 2.142175674438477 1.571085810661316 2.142175674438477 C 1.885985851287842 2.142175674438477 2.142175674438477 1.885985851287842 2.142175674438477 1.571085810661316 C 2.142175674438477 1.25618577003479 1.885985851287842 0.9999957084655762 1.571085810661316 0.9999957084655762 M 1.571085810661316 -4.291534423828125e-06 C 2.438775777816772 -4.291534423828125e-06 3.142175912857056 0.7033958435058594 3.142175912857056 1.571085810661316 C 3.142175912857056 2.438775777816772 2.438775777816772 3.142175912857056 1.571085810661316 3.142175912857056 C 0.7033958435058594 3.142175912857056 -4.291534423828125e-06 2.438775777816772 -4.291534423828125e-06 1.571085810661316 C -4.291534423828125e-06 0.7033958435058594 0.7033958435058594 -4.291534423828125e-06 1.571085810661316 -4.291534423828125e-06 Z" stroke="none" fill="#f9e5f1"/>
    </g>
    <g id="Path_16" data-name="Path 16" transform="translate(283.076 243.611)" fill="#f9e5f1">
      <path d="M 1.571085810661316 2.642175912857056 C 0.9804857969284058 2.642175912857056 0.4999957978725433 2.161685705184937 0.4999957978725433 1.571085810661316 C 0.4999957978725433 0.9804857969284058 0.9804857969284058 0.4999957978725433 1.571085810661316 0.4999957978725433 C 2.161685705184937 0.4999957978725433 2.642175912857056 0.9804857969284058 2.642175912857056 1.571085810661316 C 2.642175912857056 2.161685705184937 2.161685705184937 2.642175912857056 1.571085810661316 2.642175912857056 Z" stroke="none"/>
      <path d="M 1.571085810661316 0.9999957084655762 C 1.25618577003479 0.9999957084655762 0.9999957084655762 1.25618577003479 0.9999957084655762 1.571085810661316 C 0.9999957084655762 1.885985851287842 1.25618577003479 2.142175674438477 1.571085810661316 2.142175674438477 C 1.885985851287842 2.142175674438477 2.142175674438477 1.885985851287842 2.142175674438477 1.571085810661316 C 2.142175674438477 1.25618577003479 1.885985851287842 0.9999957084655762 1.571085810661316 0.9999957084655762 M 1.571085810661316 -4.291534423828125e-06 C 2.438775777816772 -4.291534423828125e-06 3.142175912857056 0.7033958435058594 3.142175912857056 1.571085810661316 C 3.142175912857056 2.438775777816772 2.438775777816772 3.142175912857056 1.571085810661316 3.142175912857056 C 0.7033958435058594 3.142175912857056 -4.291534423828125e-06 2.438775777816772 -4.291534423828125e-06 1.571085810661316 C -4.291534423828125e-06 0.7033958435058594 0.7033958435058594 -4.291534423828125e-06 1.571085810661316 -4.291534423828125e-06 Z" stroke="none" fill="#f9e5f1"/>
    </g>
    <circle id="Ellipse_30" data-name="Ellipse 30" cx="7.332" cy="7.332" r="7.332" transform="translate(264.598 209.124)" fill="#f3c4df"/>
    <g id="Ellipse_31" data-name="Ellipse 31" transform="translate(268.787 211.218)" fill="#f9e5f1" stroke="#f9e5f1" stroke-width="1">
      <circle cx="1.571" cy="1.571" r="1.571" stroke="none"/>
      <circle cx="1.571" cy="1.571" r="1.071" fill="none"/>
    </g>
    <g id="Path_17" data-name="Path 17" transform="translate(267.74 217.503)" fill="#f9e5f1">
      <path d="M 1.571085810661316 2.642175912857056 C 0.9804857969284058 2.642175912857056 0.4999957978725433 2.161685705184937 0.4999957978725433 1.571085810661316 C 0.4999957978725433 0.9804857969284058 0.9804857969284058 0.4999957978725433 1.571085810661316 0.4999957978725433 C 2.161685705184937 0.4999957978725433 2.642175912857056 0.9804857969284058 2.642175912857056 1.571085810661316 C 2.642175912857056 2.161685705184937 2.161685705184937 2.642175912857056 1.571085810661316 2.642175912857056 Z" stroke="none"/>
      <path d="M 1.571085810661316 0.9999957084655762 C 1.25618577003479 0.9999957084655762 0.9999957084655762 1.25618577003479 0.9999957084655762 1.571085810661316 C 0.9999957084655762 1.885985851287842 1.25618577003479 2.142175674438477 1.571085810661316 2.142175674438477 C 1.885985851287842 2.142175674438477 2.142175674438477 1.885985851287842 2.142175674438477 1.571085810661316 C 2.142175674438477 1.25618577003479 1.885985851287842 0.9999957084655762 1.571085810661316 0.9999957084655762 M 1.571085810661316 -4.291534423828125e-06 C 2.438775777816772 -4.291534423828125e-06 3.142175912857056 0.7033958435058594 3.142175912857056 1.571085810661316 C 3.142175912857056 2.438775777816772 2.438775777816772 3.142175912857056 1.571085810661316 3.142175912857056 C 0.7033958435058594 3.142175912857056 -4.291534423828125e-06 2.438775777816772 -4.291534423828125e-06 1.571085810661316 C -4.291534423828125e-06 0.7033958435058594 0.7033958435058594 -4.291534423828125e-06 1.571085810661316 -4.291534423828125e-06 Z" stroke="none" fill="#f9e5f1"/>
    </g>
    <g id="Path_18" data-name="Path 18" transform="translate(274.024 216.455)" fill="#f9e5f1">
      <path d="M 1.571085810661316 2.642175912857056 C 0.9804857969284058 2.642175912857056 0.4999957978725433 2.161685705184937 0.4999957978725433 1.571085810661316 C 0.4999957978725433 0.9804857969284058 0.9804857969284058 0.4999957978725433 1.571085810661316 0.4999957978725433 C 2.161685705184937 0.4999957978725433 2.642175912857056 0.9804857969284058 2.642175912857056 1.571085810661316 C 2.642175912857056 2.161685705184937 2.161685705184937 2.642175912857056 1.571085810661316 2.642175912857056 Z" stroke="none"/>
      <path d="M 1.571085810661316 0.9999957084655762 C 1.25618577003479 0.9999957084655762 0.9999957084655762 1.25618577003479 0.9999957084655762 1.571085810661316 C 0.9999957084655762 1.885985851287842 1.25618577003479 2.142175674438477 1.571085810661316 2.142175674438477 C 1.885985851287842 2.142175674438477 2.142175674438477 1.885985851287842 2.142175674438477 1.571085810661316 C 2.142175674438477 1.25618577003479 1.885985851287842 0.9999957084655762 1.571085810661316 0.9999957084655762 M 1.571085810661316 -4.291534423828125e-06 C 2.438775777816772 -4.291534423828125e-06 3.142175912857056 0.7033958435058594 3.142175912857056 1.571085810661316 C 3.142175912857056 2.438775777816772 2.438775777816772 3.142175912857056 1.571085810661316 3.142175912857056 C 0.7033958435058594 3.142175912857056 -4.291534423828125e-06 2.438775777816772 -4.291534423828125e-06 1.571085810661316 C -4.291534423828125e-06 0.7033958435058594 0.7033958435058594 -4.291534423828125e-06 1.571085810661316 -4.291534423828125e-06 Z" stroke="none" fill="#f9e5f1"/>
    </g>
    <circle id="Ellipse_32" data-name="Ellipse 32" cx="7.332" cy="7.332" r="7.332" transform="translate(235.933 227.982)" fill="#f3c4df"/>
    <g id="Ellipse_33" data-name="Ellipse 33" transform="translate(240.123 230.076)" fill="#f9e5f1" stroke="#f9e5f1" stroke-width="1">
      <circle cx="1.571" cy="1.571" r="1.571" stroke="none"/>
      <circle cx="1.571" cy="1.571" r="1.071" fill="none"/>
    </g>
    <g id="Path_19" data-name="Path 19" transform="translate(239.075 236.361)" fill="#f9e5f1">
      <path d="M 1.571085810661316 2.642175912857056 C 0.9804857969284058 2.642175912857056 0.4999957978725433 2.161685705184937 0.4999957978725433 1.571085810661316 C 0.4999957978725433 0.9804857969284058 0.9804857969284058 0.4999957978725433 1.571085810661316 0.4999957978725433 C 2.161685705184937 0.4999957978725433 2.642175912857056 0.9804857969284058 2.642175912857056 1.571085810661316 C 2.642175912857056 2.161685705184937 2.161685705184937 2.642175912857056 1.571085810661316 2.642175912857056 Z" stroke="none"/>
      <path d="M 1.571085810661316 0.9999957084655762 C 1.25618577003479 0.9999957084655762 0.9999957084655762 1.25618577003479 0.9999957084655762 1.571085810661316 C 0.9999957084655762 1.885985851287842 1.25618577003479 2.142175674438477 1.571085810661316 2.142175674438477 C 1.885985851287842 2.142175674438477 2.142175674438477 1.885985851287842 2.142175674438477 1.571085810661316 C 2.142175674438477 1.25618577003479 1.885985851287842 0.9999957084655762 1.571085810661316 0.9999957084655762 M 1.571085810661316 -4.291534423828125e-06 C 2.438775777816772 -4.291534423828125e-06 3.142175912857056 0.7033958435058594 3.142175912857056 1.571085810661316 C 3.142175912857056 2.438775777816772 2.438775777816772 3.142175912857056 1.571085810661316 3.142175912857056 C 0.7033958435058594 3.142175912857056 -4.291534423828125e-06 2.438775777816772 -4.291534423828125e-06 1.571085810661316 C -4.291534423828125e-06 0.7033958435058594 0.7033958435058594 -4.291534423828125e-06 1.571085810661316 -4.291534423828125e-06 Z" stroke="none" fill="#f9e5f1"/>
    </g>
    <g id="Path_20" data-name="Path 20" transform="translate(245.36 235.313)" fill="#f9e5f1">
      <path d="M 1.571085810661316 2.642175912857056 C 0.9804857969284058 2.642175912857056 0.4999957978725433 2.161685705184937 0.4999957978725433 1.571085810661316 C 0.4999957978725433 0.9804857969284058 0.9804857969284058 0.4999957978725433 1.571085810661316 0.4999957978725433 C 2.161685705184937 0.4999957978725433 2.642175912857056 0.9804857969284058 2.642175912857056 1.571085810661316 C 2.642175912857056 2.161685705184937 2.161685705184937 2.642175912857056 1.571085810661316 2.642175912857056 Z" stroke="none"/>
      <path d="M 1.571085810661316 0.9999957084655762 C 1.25618577003479 0.9999957084655762 0.9999957084655762 1.25618577003479 0.9999957084655762 1.571085810661316 C 0.9999957084655762 1.885985851287842 1.25618577003479 2.142175674438477 1.571085810661316 2.142175674438477 C 1.885985851287842 2.142175674438477 2.142175674438477 1.885985851287842 2.142175674438477 1.571085810661316 C 2.142175674438477 1.25618577003479 1.885985851287842 0.9999957084655762 1.571085810661316 0.9999957084655762 M 1.571085810661316 -4.291534423828125e-06 C 2.438775777816772 -4.291534423828125e-06 3.142175912857056 0.7033958435058594 3.142175912857056 1.571085810661316 C 3.142175912857056 2.438775777816772 2.438775777816772 3.142175912857056 1.571085810661316 3.142175912857056 C 0.7033958435058594 3.142175912857056 -4.291534423828125e-06 2.438775777816772 -4.291534423828125e-06 1.571085810661316 C -4.291534423828125e-06 0.7033958435058594 0.7033958435058594 -4.291534423828125e-06 1.571085810661316 -4.291534423828125e-06 Z" stroke="none" fill="#f9e5f1"/>
    </g>
    <circle id="Ellipse_34" data-name="Ellipse 34" cx="7.332" cy="7.332" r="7.332" transform="translate(244.231 249.857)" fill="#f3c4df"/>
    <g id="Ellipse_35" data-name="Ellipse 35" transform="translate(248.42 251.952)" fill="#f9e5f1" stroke="#f9e5f1" stroke-width="1">
      <circle cx="1.571" cy="1.571" r="1.571" stroke="none"/>
      <circle cx="1.571" cy="1.571" r="1.071" fill="none"/>
    </g>
    <g id="Path_21" data-name="Path 21" transform="translate(247.373 258.236)" fill="#f9e5f1">
      <path d="M 1.571085810661316 2.642175912857056 C 0.9804857969284058 2.642175912857056 0.4999957978725433 2.161685705184937 0.4999957978725433 1.571085810661316 C 0.4999957978725433 0.9804857969284058 0.9804857969284058 0.4999957978725433 1.571085810661316 0.4999957978725433 C 2.161685705184937 0.4999957978725433 2.642175912857056 0.9804857969284058 2.642175912857056 1.571085810661316 C 2.642175912857056 2.161685705184937 2.161685705184937 2.642175912857056 1.571085810661316 2.642175912857056 Z" stroke="none"/>
      <path d="M 1.571085810661316 0.9999957084655762 C 1.25618577003479 0.9999957084655762 0.9999957084655762 1.25618577003479 0.9999957084655762 1.571085810661316 C 0.9999957084655762 1.885985851287842 1.25618577003479 2.142175674438477 1.571085810661316 2.142175674438477 C 1.885985851287842 2.142175674438477 2.142175674438477 1.885985851287842 2.142175674438477 1.571085810661316 C 2.142175674438477 1.25618577003479 1.885985851287842 0.9999957084655762 1.571085810661316 0.9999957084655762 M 1.571085810661316 -4.291534423828125e-06 C 2.438775777816772 -4.291534423828125e-06 3.142175912857056 0.7033958435058594 3.142175912857056 1.571085810661316 C 3.142175912857056 2.438775777816772 2.438775777816772 3.142175912857056 1.571085810661316 3.142175912857056 C 0.7033958435058594 3.142175912857056 -4.291534423828125e-06 2.438775777816772 -4.291534423828125e-06 1.571085810661316 C -4.291534423828125e-06 0.7033958435058594 0.7033958435058594 -4.291534423828125e-06 1.571085810661316 -4.291534423828125e-06 Z" stroke="none" fill="#f9e5f1"/>
    </g>
    <g id="Path_22" data-name="Path 22" transform="translate(253.657 257.189)" fill="#f9e5f1">
      <path d="M 1.571085810661316 2.642175912857056 C 0.9804857969284058 2.642175912857056 0.4999957978725433 2.161685705184937 0.4999957978725433 1.571085810661316 C 0.4999957978725433 0.9804857969284058 0.9804857969284058 0.4999957978725433 1.571085810661316 0.4999957978725433 C 2.161685705184937 0.4999957978725433 2.642175912857056 0.9804857969284058 2.642175912857056 1.571085810661316 C 2.642175912857056 2.161685705184937 2.161685705184937 2.642175912857056 1.571085810661316 2.642175912857056 Z" stroke="none"/>
      <path d="M 1.571085810661316 0.9999957084655762 C 1.25618577003479 0.9999957084655762 0.9999957084655762 1.25618577003479 0.9999957084655762 1.571085810661316 C 0.9999957084655762 1.885985851287842 1.25618577003479 2.142175674438477 1.571085810661316 2.142175674438477 C 1.885985851287842 2.142175674438477 2.142175674438477 1.885985851287842 2.142175674438477 1.571085810661316 C 2.142175674438477 1.25618577003479 1.885985851287842 0.9999957084655762 1.571085810661316 0.9999957084655762 M 1.571085810661316 -4.291534423828125e-06 C 2.438775777816772 -4.291534423828125e-06 3.142175912857056 0.7033958435058594 3.142175912857056 1.571085810661316 C 3.142175912857056 2.438775777816772 2.438775777816772 3.142175912857056 1.571085810661316 3.142175912857056 C 0.7033958435058594 3.142175912857056 -4.291534423828125e-06 2.438775777816772 -4.291534423828125e-06 1.571085810661316 C -4.291534423828125e-06 0.7033958435058594 0.7033958435058594 -4.291534423828125e-06 1.571085810661316 -4.291534423828125e-06 Z" stroke="none" fill="#f9e5f1"/>
    </g>
    <circle id="Ellipse_36" data-name="Ellipse 36" cx="7.332" cy="7.332" r="7.332" transform="translate(266.106 260.418)" fill="#f3c4df"/>
    <g id="Ellipse_37" data-name="Ellipse 37" transform="translate(270.296 262.513)" fill="#f9e5f1" stroke="#f9e5f1" stroke-width="1">
      <circle cx="1.571" cy="1.571" r="1.571" stroke="none"/>
      <circle cx="1.571" cy="1.571" r="1.071" fill="none"/>
    </g>
    <g id="Path_23" data-name="Path 23" transform="translate(269.248 268.797)" fill="#f9e5f1">
      <path d="M 1.571085810661316 2.642175912857056 C 0.9804857969284058 2.642175912857056 0.4999957978725433 2.161685705184937 0.4999957978725433 1.571085810661316 C 0.4999957978725433 0.9804857969284058 0.9804857969284058 0.4999957978725433 1.571085810661316 0.4999957978725433 C 2.161685705184937 0.4999957978725433 2.642175912857056 0.9804857969284058 2.642175912857056 1.571085810661316 C 2.642175912857056 2.161685705184937 2.161685705184937 2.642175912857056 1.571085810661316 2.642175912857056 Z" stroke="none"/>
      <path d="M 1.571085810661316 0.9999957084655762 C 1.25618577003479 0.9999957084655762 0.9999957084655762 1.25618577003479 0.9999957084655762 1.571085810661316 C 0.9999957084655762 1.885985851287842 1.25618577003479 2.142175674438477 1.571085810661316 2.142175674438477 C 1.885985851287842 2.142175674438477 2.142175674438477 1.885985851287842 2.142175674438477 1.571085810661316 C 2.142175674438477 1.25618577003479 1.885985851287842 0.9999957084655762 1.571085810661316 0.9999957084655762 M 1.571085810661316 -4.291534423828125e-06 C 2.438775777816772 -4.291534423828125e-06 3.142175912857056 0.7033958435058594 3.142175912857056 1.571085810661316 C 3.142175912857056 2.438775777816772 2.438775777816772 3.142175912857056 1.571085810661316 3.142175912857056 C 0.7033958435058594 3.142175912857056 -4.291534423828125e-06 2.438775777816772 -4.291534423828125e-06 1.571085810661316 C -4.291534423828125e-06 0.7033958435058594 0.7033958435058594 -4.291534423828125e-06 1.571085810661316 -4.291534423828125e-06 Z" stroke="none" fill="#f9e5f1"/>
    </g>
    <g id="Path_24" data-name="Path 24" transform="translate(275.533 267.75)" fill="#f9e5f1">
      <path d="M 1.571085810661316 2.642175912857056 C 0.9804857969284058 2.642175912857056 0.4999957978725433 2.161685705184937 0.4999957978725433 1.571085810661316 C 0.4999957978725433 0.9804857969284058 0.9804857969284058 0.4999957978725433 1.571085810661316 0.4999957978725433 C 2.161685705184937 0.4999957978725433 2.642175912857056 0.9804857969284058 2.642175912857056 1.571085810661316 C 2.642175912857056 2.161685705184937 2.161685705184937 2.642175912857056 1.571085810661316 2.642175912857056 Z" stroke="none"/>
      <path d="M 1.571085810661316 0.9999957084655762 C 1.25618577003479 0.9999957084655762 0.9999957084655762 1.25618577003479 0.9999957084655762 1.571085810661316 C 0.9999957084655762 1.885985851287842 1.25618577003479 2.142175674438477 1.571085810661316 2.142175674438477 C 1.885985851287842 2.142175674438477 2.142175674438477 1.885985851287842 2.142175674438477 1.571085810661316 C 2.142175674438477 1.25618577003479 1.885985851287842 0.9999957084655762 1.571085810661316 0.9999957084655762 M 1.571085810661316 -4.291534423828125e-06 C 2.438775777816772 -4.291534423828125e-06 3.142175912857056 0.7033958435058594 3.142175912857056 1.571085810661316 C 3.142175912857056 2.438775777816772 2.438775777816772 3.142175912857056 1.571085810661316 3.142175912857056 C 0.7033958435058594 3.142175912857056 -4.291534423828125e-06 2.438775777816772 -4.291534423828125e-06 1.571085810661316 C -4.291534423828125e-06 0.7033958435058594 0.7033958435058594 -4.291534423828125e-06 1.571085810661316 -4.291534423828125e-06 Z" stroke="none" fill="#f9e5f1"/>
    </g>
    <rect id="Rectangle_4" data-name="Rectangle 4" width="6.076" height="6.076" transform="translate(283.947 232.071) rotate(158)" fill="#e5a046"/>
    <path id="Path_26" data-name="Path 26" d="M0,6.076,6.076,0V6.076Z" transform="translate(283.947 232.071) rotate(158)" fill="#ecbf43"/>
    <rect id="Rectangle_5" data-name="Rectangle 5" width="6.076" height="6.076" transform="translate(243.635 270.802) rotate(158)" fill="#e5a046"/>
    <path id="Path_27" data-name="Path 27" d="M0,6.076,6.076,0V6.076Z" transform="translate(243.635 270.802) rotate(158)" fill="#ecbf43"/>
    <rect id="Rectangle_6" data-name="Rectangle 6" width="6.076" height="6.076" transform="translate(273.671 256.574) rotate(158)" fill="#e5a046"/>
    <path id="Path_28" data-name="Path 28" d="M0,6.076,6.076,0V6.076Z" transform="translate(273.671 256.574) rotate(158)" fill="#ecbf43"/>
    <rect id="Rectangle_7" data-name="Rectangle 7" width="6.076" height="6.076" transform="translate(291.851 278.706) rotate(158)" fill="#e5a046"/>
    <path id="Path_29" data-name="Path 29" d="M0,6.076,6.076,0V6.076Z" transform="translate(291.851 278.706) rotate(158)" fill="#ecbf43"/>
    <rect id="Rectangle_8" data-name="Rectangle 8" width="6.076" height="6.076" transform="translate(239.683 224.957) rotate(158)" fill="#e5a046"/>
    <path id="Path_30" data-name="Path 30" d="M0,6.076,6.076,0V6.076Z" transform="translate(239.683 224.957) rotate(158)" fill="#ecbf43"/>
    <rect id="Rectangle_9" data-name="Rectangle 9" width="6.076" height="6.076" transform="translate(263.396 210.729) rotate(158)" fill="#e5a046"/>
    <path id="Path_31" data-name="Path 31" d="M0,6.076,6.076,0V6.076Z" transform="translate(263.396 210.729) rotate(158)" fill="#ecbf43"/>
    <rect id="Rectangle_10" data-name="Rectangle 10" width="6.076" height="6.076" transform="translate(302.412 247.779) rotate(158)" fill="#e5a046"/>
    <path id="Path_32" data-name="Path 32" d="M0,6.076,6.076,0V6.076Z" transform="translate(302.412 247.779) rotate(158)" fill="#ecbf43"/>
  </g>
</svg>
